<?xml version="1.0" standalone="no"?>
<!DOCTYPE svg PUBLIC "-//W3C//DTD SVG 20010904//EN"
 "http://www.w3.org/TR/2001/REC-SVG-20010904/DTD/svg10.dtd">
<svg version="1.0" xmlns="http://www.w3.org/2000/svg"
 width="270.000000pt" height="466.000000pt" viewBox="0 0 270.000000 466.000000"
 preserveAspectRatio="xMidYMid meet">

<g transform="translate(0.000000,466.000000) scale(0.100000,-0.100000)"
fill="#000000" stroke="none">
<path d="M140 4480 c0 -13 7 -20 20 -20 19 0 20 -7 20 -120 0 -113 -1 -120
-20 -120 -17 0 -20 -7 -20 -40 l0 -40 140 0 140 0 0 80 c0 73 -2 80 -20 80
-17 0 -20 -7 -20 -40 l0 -40 -60 0 -60 0 0 120 c0 113 1 120 20 120 13 0 20 7
20 20 0 18 -7 20 -80 20 -73 0 -80 -2 -80 -20z"/>
<path d="M580 4480 c0 -13 7 -20 20 -20 19 0 20 -7 20 -140 0 -133 -1 -140
-20 -140 -13 0 -20 -7 -20 -20 0 -18 7 -20 80 -20 l80 0 0 40 c0 33 -3 40 -20
40 -19 0 -20 7 -20 120 0 113 1 120 20 120 13 0 20 7 20 20 0 18 -7 20 -80 20
-73 0 -80 -2 -80 -20z"/>
<path d="M900 4440 c0 -53 2 -60 20 -60 13 0 20 7 20 20 0 17 7 20 40 20 33 0
40 -3 40 -20 0 -13 -7 -20 -20 -20 -18 0 -20 -7 -20 -60 0 -53 2 -60 20 -60
13 0 20 -7 20 -20 0 -13 -7 -20 -20 -20 -17 0 -20 -7 -20 -40 l0 -40 60 0 60
0 0 60 c0 53 -2 60 -20 60 -18 0 -20 7 -20 80 0 73 2 80 20 80 13 0 20 7 20
20 0 13 7 20 20 20 17 0 20 -7 20 -40 0 -33 3 -40 20 -40 13 0 20 7 20 20 0
13 7 20 20 20 17 0 20 7 20 40 l0 40 -160 0 -160 0 0 -60z"/>
<path d="M1340 4440 c0 -53 2 -60 20 -60 13 0 20 7 20 20 0 13 7 20 20 20 13
0 20 7 20 20 0 13 7 20 20 20 19 0 20 -7 20 -120 0 -113 -1 -120 -20 -120 -17
0 -20 -7 -20 -40 l0 -40 80 0 80 0 0 40 c0 33 -3 40 -20 40 -19 0 -20 7 -20
120 0 113 1 120 20 120 13 0 20 -7 20 -20 0 -13 7 -20 20 -20 13 0 20 -7 20
-20 0 -13 7 -20 20 -20 18 0 20 7 20 60 l0 60 -160 0 -160 0 0 -60z"/>
<path d="M1820 4320 l0 -180 120 0 120 0 0 40 c0 33 3 40 20 40 13 0 20 7 20
20 0 13 -7 20 -20 20 -13 0 -20 7 -20 20 0 13 -7 20 -20 20 -17 0 -20 -7 -20
-40 l0 -40 -40 0 c-33 0 -40 3 -40 20 0 13 -7 20 -20 20 -19 0 -20 7 -20 100
0 93 1 100 20 100 13 0 20 7 20 20 0 18 -7 20 -60 20 l-60 0 0 -180z"/>
<path d="M2220 4480 c0 -13 7 -20 20 -20 19 0 20 -7 20 -120 0 -113 -1 -120
-20 -120 -17 0 -20 -7 -20 -40 l0 -40 140 0 140 0 0 60 c0 53 -2 60 -20 60
-13 0 -20 -7 -20 -20 0 -18 -7 -20 -60 -20 l-60 0 0 40 0 40 40 0 c33 0 40 3
40 20 0 13 7 20 20 20 13 0 20 7 20 20 0 18 -7 20 -60 20 l-60 0 0 40 0 40 60
0 c53 0 60 -2 60 -20 0 -13 7 -20 20 -20 17 0 20 7 20 40 l0 40 -140 0 c-133
0 -140 -1 -140 -20z"/>
<path d="M140 3760 c0 -13 7 -20 20 -20 13 0 20 -7 20 -20 0 -13 7 -20 20 -20
13 0 20 7 20 20 0 13 7 20 20 20 13 0 20 -7 20 -20 0 -20 7 -20 320 -20 313 0
320 0 320 20 0 19 7 20 100 20 93 0 100 -1 100 -20 0 -19 7 -20 180 -20 173 0
180 1 180 20 0 13 7 20 20 20 13 0 20 -7 20 -20 0 -19 7 -20 160 -20 153 0
160 1 160 20 0 13 7 20 20 20 13 0 20 -7 20 -20 0 -17 7 -20 40 -20 33 0 40 3
40 20 0 19 7 20 120 20 113 0 120 -1 120 -20 0 -19 7 -20 100 -20 93 0 100 1
100 20 0 17 7 20 40 20 33 0 40 -3 40 -20 0 -13 7 -20 20 -20 20 0 20 -7 20
-1180 l0 -1180 40 0 40 0 0 1220 0 1220 -1220 0 c-1213 0 -1220 0 -1220 -20z"/>
<path d="M140 2160 l0 -1220 1220 0 c1213 0 1220 0 1220 20 0 20 -7 20 -1180
20 -1173 0 -1180 0 -1180 20 0 13 -7 20 -20 20 -17 0 -20 7 -20 40 0 33 3 40
20 40 13 0 20 7 20 20 0 13 -7 20 -20 20 -19 0 -20 7 -20 100 0 93 1 100 20
100 17 0 20 7 20 40 0 33 -3 40 -20 40 -13 0 -20 7 -20 20 0 13 7 20 20 20 18
0 20 7 20 60 0 53 -2 60 -20 60 -17 0 -20 7 -20 40 0 33 3 40 20 40 18 0 20 7
20 60 0 53 -2 60 -20 60 -13 0 -20 7 -20 20 0 13 7 20 20 20 17 0 20 7 20 40
0 33 -3 40 -20 40 -17 0 -20 7 -20 40 0 33 3 40 20 40 19 0 20 7 20 120 0 113
-1 120 -20 120 -18 0 -20 7 -20 80 0 73 2 80 20 80 17 0 20 7 20 40 0 33 -3
40 -20 40 -18 0 -20 7 -20 60 0 53 2 60 20 60 17 0 20 7 20 40 0 33 -3 40 -20
40 -17 0 -20 7 -20 40 0 33 3 40 20 40 18 0 20 7 20 80 0 73 -2 80 -20 80 -13
0 -20 7 -20 20 0 13 7 20 20 20 19 0 20 7 20 160 0 153 -1 160 -20 160 -18 0
-20 7 -20 60 0 53 -2 60 -20 60 -20 0 -20 -7 -20 -1220z"/>
<path d="M1260 3240 c0 -19 7 -20 160 -20 153 0 160 -1 160 -20 0 -19 -7 -20
-160 -20 l-160 0 0 -40 c0 -33 -3 -40 -20 -40 -13 0 -20 7 -20 20 0 13 -7 20
-20 20 -13 0 -20 7 -20 20 0 17 -7 20 -40 20 l-40 0 0 -40 c0 -33 -3 -40 -20
-40 -18 0 -20 -7 -20 -60 0 -53 -2 -60 -20 -60 -17 0 -20 -7 -20 -40 0 -33 3
-40 20 -40 18 0 20 -7 20 -60 0 -53 2 -60 20 -60 13 0 20 -7 20 -20 0 -17 7
-20 40 -20 33 0 40 -3 40 -20 0 -17 7 -20 40 -20 33 0 40 -3 40 -20 0 -13 7
-20 20 -20 13 0 20 -7 20 -20 0 -18 7 -20 60 -20 l60 0 0 160 c0 153 -1 160
-20 160 -13 0 -20 7 -20 20 0 13 -7 20 -20 20 -13 0 -20 7 -20 20 0 13 -7 20
-20 20 -13 0 -20 7 -20 20 0 13 -7 20 -20 20 -13 0 -20 7 -20 20 0 18 7 20 60
20 53 0 60 -2 60 -20 0 -19 7 -20 100 -20 93 0 100 1 100 20 0 17 7 20 40 20
33 0 40 3 40 20 0 17 7 20 40 20 l40 0 0 40 0 40 -60 0 c-53 0 -60 2 -60 20 0
19 -7 20 -180 20 -173 0 -180 -1 -180 -20z m-80 -160 c0 -13 7 -20 20 -20 17
0 20 -7 20 -40 0 -33 3 -40 20 -40 17 0 20 -7 20 -40 0 -33 3 -40 20 -40 17 0
20 -7 20 -40 0 -33 3 -40 20 -40 17 0 20 -7 20 -40 0 -33 3 -40 20 -40 13 0
20 -7 20 -20 0 -13 -7 -20 -20 -20 -13 0 -20 7 -20 20 0 13 -7 20 -20 20 -13
0 -20 7 -20 20 0 13 -7 20 -20 20 -13 0 -20 7 -20 20 0 13 -7 20 -20 20 -17 0
-20 7 -20 40 0 33 -3 40 -20 40 -17 0 -20 7 -20 40 0 33 -3 40 -20 40 -18 0
-20 7 -20 60 0 53 2 60 20 60 13 0 20 -7 20 -20z"/>
<path d="M140 520 c0 -13 7 -20 20 -20 19 0 20 -7 20 -140 0 -133 -1 -140 -20
-140 -13 0 -20 -7 -20 -20 0 -19 7 -20 140 -20 l140 0 0 60 c0 53 -2 60 -20
60 -13 0 -20 -7 -20 -20 0 -13 -7 -20 -20 -20 -13 0 -20 -7 -20 -20 0 -17 -7
-20 -40 -20 l-40 0 0 140 c0 133 1 140 20 140 13 0 20 7 20 20 0 18 -7 20 -80
20 -73 0 -80 -2 -80 -20z"/>
<path d="M580 520 c0 -13 7 -20 20 -20 19 0 20 -7 20 -140 0 -133 -1 -140 -20
-140 -13 0 -20 -7 -20 -20 0 -19 7 -20 160 -20 l160 0 0 60 0 60 -40 0 c-33 0
-40 -3 -40 -20 0 -13 -7 -20 -20 -20 -13 0 -20 -7 -20 -20 0 -13 -7 -20 -20
-20 -13 0 -20 7 -20 20 0 13 -7 20 -20 20 -13 0 -20 7 -20 20 0 13 7 20 20 20
13 0 20 7 20 20 0 17 7 20 40 20 33 0 40 3 40 20 0 17 -7 20 -40 20 -33 0 -40
3 -40 20 0 13 -7 20 -20 20 -17 0 -20 7 -20 40 l0 40 40 0 c33 0 40 -3 40 -20
0 -13 7 -20 20 -20 13 0 20 -7 20 -20 0 -17 7 -20 40 -20 l40 0 0 40 c0 33 -3
40 -20 40 -13 0 -20 7 -20 20 0 19 -7 20 -140 20 -133 0 -140 -1 -140 -20z"/>
<path d="M1060 520 c0 -13 7 -20 20 -20 19 0 20 -7 20 -140 0 -133 -1 -140
-20 -140 -13 0 -20 -7 -20 -20 0 -18 7 -20 60 -20 53 0 60 2 60 20 0 13 -7 20
-20 20 -18 0 -20 7 -20 60 0 53 2 60 20 60 13 0 20 -7 20 -20 0 -13 7 -20 20
-20 17 0 20 -7 20 -40 0 -33 3 -40 20 -40 13 0 20 -7 20 -20 0 -13 7 -20 20
-20 17 0 20 7 20 40 0 33 3 40 20 40 17 0 20 7 20 40 0 33 3 40 20 40 17 0 20
-7 20 -40 0 -33 3 -40 20 -40 13 0 20 -7 20 -20 0 -17 -7 -20 -40 -20 -33 0
-40 -3 -40 -20 0 -18 7 -20 80 -20 73 0 80 2 80 20 0 13 -7 20 -20 20 -19 0
-20 7 -20 140 0 133 1 140 20 140 13 0 20 7 20 20 0 18 -7 20 -80 20 l-80 0 0
-60 c0 -53 -2 -60 -20 -60 -13 0 -20 -7 -20 -20 0 -13 -7 -20 -20 -20 -13 0
-20 7 -20 20 0 13 -7 20 -20 20 -18 0 -20 7 -20 60 l0 60 -80 0 c-73 0 -80 -2
-80 -20z"/>
<path d="M1740 520 c0 -13 -7 -20 -20 -20 -17 0 -20 -7 -20 -40 0 -33 -3 -40
-20 -40 -18 0 -20 -7 -20 -60 0 -53 2 -60 20 -60 17 0 20 -7 20 -40 l0 -40 40
0 c33 0 40 -3 40 -20 0 -18 7 -20 80 -20 73 0 80 2 80 20 0 13 7 20 20 20 13
0 20 7 20 20 0 13 7 20 20 20 19 0 20 7 20 120 l0 120 -40 0 c-33 0 -40 3 -40
20 0 19 -7 20 -100 20 -93 0 -100 -1 -100 -20z m120 -40 c0 -13 7 -20 20 -20
13 0 20 -7 20 -20 0 -13 7 -20 20 -20 18 0 20 -7 20 -80 0 -73 -2 -80 -20 -80
-13 0 -20 -7 -20 -20 0 -17 -7 -20 -40 -20 -33 0 -40 3 -40 20 0 13 -7 20 -20
20 -19 0 -20 7 -20 100 0 93 1 100 20 100 13 0 20 7 20 20 0 13 7 20 20 20 13
0 20 -7 20 -20z"/>
<path d="M2180 520 c0 -13 7 -20 20 -20 19 0 20 -7 20 -140 0 -133 -1 -140
-20 -140 -13 0 -20 -7 -20 -20 0 -18 7 -20 80 -20 73 0 80 2 80 20 0 13 -7 20
-20 20 -18 0 -20 7 -20 60 0 53 2 60 20 60 13 0 20 -7 20 -20 0 -13 7 -20 20
-20 13 0 20 -7 20 -20 0 -13 7 -20 20 -20 13 0 20 -7 20 -20 0 -13 7 -20 20
-20 13 0 20 -7 20 -20 0 -13 7 -20 20 -20 19 0 20 7 20 160 0 153 1 160 20
160 13 0 20 7 20 20 0 18 -7 20 -60 20 -53 0 -60 -2 -60 -20 0 -13 7 -20 20
-20 18 0 20 -7 20 -60 0 -53 -2 -60 -20 -60 -13 0 -20 7 -20 20 0 17 -7 20
-40 20 l-40 0 0 40 c0 33 -3 40 -20 40 -13 0 -20 7 -20 20 0 18 -7 20 -60 20
-53 0 -60 -2 -60 -20z"/>
</g>
</svg>
